<?xml version="1.0" encoding="UTF-8" standalone="no"?>
<!-- Created with Inkscape (http://www.inkscape.org/) -->

<svg
   width="229mm"
   height="200mm"
   viewBox="0 0 229 200"
   version="1.1"
   id="svg1"
   xml:space="preserve"
   inkscape:version="1.4 (86a8ad7, 2024-10-11)"
   sodipodi:docname="icon black.svg"
   xmlns:inkscape="http://www.inkscape.org/namespaces/inkscape"
   xmlns:sodipodi="http://sodipodi.sourceforge.net/DTD/sodipodi-0.dtd"
   xmlns="http://www.w3.org/2000/svg"
   xmlns:svg="http://www.w3.org/2000/svg"><sodipodi:namedview
     id="namedview1"
     pagecolor="#ffffff"
     bordercolor="#000000"
     borderopacity="0.25"
     inkscape:showpageshadow="2"
     inkscape:pageopacity="0.0"
     inkscape:pagecheckerboard="false"
     inkscape:deskcolor="#d1d1d1"
     inkscape:document-units="mm"
     showborder="true"
     inkscape:zoom="0.36756309"
     inkscape:cx="293.82711"
     inkscape:cy="499.23402"
     inkscape:window-width="1592"
     inkscape:window-height="1211"
     inkscape:window-x="4314"
     inkscape:window-y="60"
     inkscape:window-maximized="0"
     inkscape:current-layer="layer1"
     labelstyle="default"
     borderlayer="true"
     inkscape:clip-to-page="false" /><defs
     id="defs1" /><g
     inkscape:label="Layer 1"
     inkscape:groupmode="layer"
     id="layer1"><path
       style="fill:#000000;stroke-width:1.29967"
       d="m 106.29841,198.89909 c -6.568738,-0.63107 -13.318618,-2.00241 -18.691958,-3.79755 l -3.093129,-1.03337 -1.26389,0.52304 c -0.695139,0.28768 -2.337068,0.79164 -3.648729,1.11992 -9.844945,2.46394 -20.968922,0.90026 -29.002312,-4.0768 -1.946841,-1.20616 -3.390427,-2.3581 -3.390427,-2.70546 0,-0.24223 1.989021,-0.86877 4.494575,-1.41581 1.472165,-0.3214 3.242716,-0.43389 6.874056,-0.43674 5.788031,-0.004 7.704685,0.3226 14.659478,2.50212 2.464323,0.77228 4.518973,1.36709 4.565889,1.3218 0.04692,-0.0452 -0.839094,-0.45328 -1.968912,-0.90663 -2.793488,-1.1209 -9.179986,-4.35703 -12.194544,-6.17917 l -2.473113,-1.49485 h -5.068845 c -6.809062,0 -10.686711,-0.47893 -14.79478,-1.82735 -2.524553,-0.82865 -6.678778,-2.96927 -8.904124,-4.58817 -3.232308,-2.35146 -7.188368,-6.66323 -6.746633,-7.35328 0.287861,-0.44967 5.130045,-0.30867 8.436664,0.24566 5.938911,0.99564 10.718335,2.873 16.557317,6.50371 1.939214,1.20581 2.908254,1.72841 2.908254,1.56838 0,-0.0598 -1.159997,-1.00249 -2.57777,-2.09486 -1.417774,-1.09238 -4.466145,-3.8148 -6.774158,-6.04982 l -4.196388,-4.06367 -2.535643,-0.36775 c -3.016519,-0.43749 -5.944199,-1.13697 -8.569587,-2.04738 -7.708692,-2.67322 -14.17269,-8.47382 -17.913136,-16.07474 -1.3867445,-2.818 -1.2769393,-2.95902 1.721288,-2.21074 6.739036,1.68193 14.116985,6.31638 20.826183,13.08199 1.605482,1.61898 2.751219,2.71297 2.546081,2.4311 -0.205137,-0.28186 -1.445102,-1.88996 -2.755479,-3.57351 -2.540679,-3.26422 -4.84161,-6.74232 -6.915081,-10.45282 -1.137209,-2.03505 -1.39431,-2.32708 -2.335435,-2.65277 C 15.35437,139.776 9.3639653,135.12683 5.607649,128.46172 2.9417313,123.73139 0.7917806,115.95444 2.1499886,115.95444 c 0.731272,0 4.0349859,2.02232 6.7571897,4.13632 4.8717027,3.78323 9.3348577,9.12622 12.1540667,14.55002 1.293491,2.4885 1.945087,3.36505 1.146474,1.54227 -1.306926,-2.98298 -3.489711,-10.04939 -4.608168,-14.91819 l -0.568491,-2.47472 -2.475408,-1.69405 C 11.593929,115.06921 7.7641843,111.3244 6.0751355,108.80363 3.7636296,105.35388 2.0897823,101.22389 1.0593022,96.427762 0.50459231,93.846006 0.38037492,87.297194 0.87698523,86.81603 1.5964923,86.118898 6.3136126,91.414584 9.5523177,96.555402 c 2.5065093,3.978588 4.1493843,7.826128 5.5274563,12.945088 0.362494,1.3465 0.734941,2.51672 0.827659,2.6005 0.09272,0.0838 0.100116,-0.0774 0.01643,-0.35819 -0.488018,-1.63745 -0.765373,-7.41133 -0.61598,-12.823208 l 0.163738,-5.931441 -1.737058,-1.853707 C 7.7647937,84.763822 4.6525323,76.917489 4.6438581,68.215875 c -0.00392,-3.940008 0.7936198,-8.456809 1.7460596,-9.888579 0.5414277,-0.81392 1.1271809,-0.441408 2.4245816,1.541891 4.2440387,6.487741 6.5963527,14.825565 7.0015217,24.817057 0.05074,1.251272 0.218953,0.527329 0.919291,-3.956383 0.471453,-3.01835 1.235797,-7.358851 1.698547,-9.645585 l 0.84136,-4.157689 -0.583442,-0.947318 c -3.335233,-5.415381 -4.796551,-10.484921 -4.796551,-16.64001 0,-5.320232 1.058655,-10.133177 3.198652,-14.542015 1.623822,-3.345407 2.243488,-3.767462 3.110117,-2.118322 0.903938,1.720141 2.104377,5.768567 2.52884,8.528394 0.783659,5.095299 0.427329,12.083751 -0.888956,17.4345 -0.750444,3.050589 -0.660215,3.468122 0.222544,1.02986 1.14119,-3.152081 3.584485,-8.799688 5.600715,-12.945914 1.0048,-2.066297 1.826848,-3.904097 1.826774,-4.084011 -7.3e-5,-0.179913 -0.225128,-0.901426 -0.500121,-1.603366 -1.358373,-3.467343 -1.841847,-9.209631 -1.106778,-13.145413 0.67958,-3.638678 2.572898,-8.067558 4.855754,-11.358652 1.715749,-2.473522 3.926824,-4.992273 5.309313,-6.0481 1.075279,-0.8212245 1.35373,-0.9300705 1.689995,-0.6606355 0.849523,0.6806765 -0.127549,9.4629485 -1.658022,14.9027895 -0.803922,2.857433 -2.001815,5.755324 -4.012519,9.706873 -0.845373,1.66137 -1.578181,3.137551 -1.628463,3.280397 -0.05028,0.14286 1.034336,-1.348345 2.410263,-3.313774 1.375928,-1.965428 3.53147,-4.894433 4.790093,-6.508898 2.128313,-2.730027 2.354794,-3.140736 3.237364,-5.870761 0.521926,-1.614465 1.246392,-3.509699 1.609922,-4.211639 3.902563,-7.535432 11.752654,-13.2973959 20.486112,-15.0367863 2.499958,-0.4979044 3.094013,-0.5071965 3.275255,-0.051211 0.205878,0.517971 -2.2135,5.0229588 -4.345593,8.0916783 -4.369819,6.289476 -8.698988,9.940176 -15.968794,13.466148 -3.64445,1.767631 -4.141051,2.090431 -5.220799,3.39365 -1.801769,2.174676 -8.27166,10.954857 -8.155205,11.067291 0.05605,0.05407 0.693618,-0.595809 1.416832,-1.444235 4.476889,-5.252051 10.651324,-8.80317 17.234718,-9.912246 2.077514,-0.350001 6.942719,-0.366455 7.296715,-0.0247 0.406943,0.392879 -0.90591,2.071937 -3.916263,5.008689 -6.24748,6.09472 -13.305137,9.787554 -21.679716,11.343665 -3.073553,0.571103 -3.067065,0.566683 -4.406034,3.004998 -1.844771,3.359404 -6.566017,14.366364 -6.566017,15.307806 0,0.102539 0.538108,-0.725151 1.195797,-1.83936 3.257039,-5.517859 7.267663,-9.079858 12.830417,-11.395223 2.39156,-0.995418 6.304477,-1.916587 7.018168,-1.652183 0.513767,0.190338 0.366472,0.682251 -0.987973,3.299478 -1.790659,3.460143 -4.108027,6.528095 -7.072774,9.363629 -3.958074,3.785567 -7.820537,6.189206 -13.115828,8.162055 -0.872477,0.325048 -1.73604,0.722346 -1.91903,0.88288 -0.18299,0.160523 -0.622586,1.550288 -0.976881,3.088358 -0.722527,3.136641 -2.612131,14.410416 -2.442751,14.573953 0.06017,0.0581 0.318393,-0.615407 0.573832,-1.496662 0.850238,-2.933268 3.195968,-6.843531 5.666196,-9.445383 2.566241,-2.702953 6.540116,-5.370127 9.432496,-6.330871 2.226632,-0.739604 2.571384,-0.69175 2.353082,0.326634 -0.422197,1.969536 -1.843987,5.646997 -3.285292,8.497396 -2.737363,5.413568 -6.121111,9.233707 -11.693857,13.20199 l -3.085365,2.197045 -0.18961,1.465146 c -0.237019,1.831491 0.04604,14.460049 0.351222,15.669969 0.203401,0.80638 0.242842,0.6995 0.405012,-1.09757 0.538314,-5.96525 3.298078,-11.439498 7.852277,-15.57572 2.197395,-1.995702 4.147955,-3.163704 4.849411,-2.903838 0.564565,0.209153 0.573573,1.65231 0.03228,5.17174 -1.169032,7.600968 -4.061476,13.779068 -8.922432,19.057818 -2.819552,3.06188 -2.935979,3.27007 -2.718019,4.86013 0.41798,3.04926 4.451249,16.79299 4.822831,16.43425 0.07915,-0.0764 -0.01821,-0.74817 -0.216358,-1.49278 -0.222212,-0.83503 -0.354321,-2.67437 -0.344736,-4.79973 0.01772,-3.93204 0.616221,-6.75323 2.084731,-9.82716 0.985596,-2.06306 3.662574,-5.58998 4.920165,-6.48229 0.812429,-0.57648 0.881435,-0.58571 1.202925,-0.16124 0.648317,0.85599 1.22238,4.10455 1.359536,7.69346 0.233136,6.10037 -0.854569,10.63289 -4.038462,16.82851 -0.940955,1.83102 -1.710827,3.59981 -1.710827,3.93066 0,1.27896 5.0208,9.84727 8.160271,13.92599 1.636473,2.12607 1.831117,2.26594 0.887996,0.63813 -0.447357,-0.77214 -1.147844,-2.32278 -1.556636,-3.44589 -0.713554,-1.96038 -0.742895,-2.23073 -0.734131,-6.76413 0.0086,-4.4208 0.05575,-4.8683 0.739746,-7.01253 0.792512,-2.48443 2.12691,-5.1263 2.695713,-5.33702 0.447414,-0.16575 1.134278,0.89407 2.33559,3.60376 3.1391,7.0806 3.825023,14.86948 2.010747,22.83274 -0.59343,2.6047 -0.766122,2.28599 3.55115,6.55392 2.816994,2.78481 9.140713,8.20246 9.574276,8.20246 0.08807,0 -0.392641,-0.62467 -1.068239,-1.38813 -3.623891,-4.09523 -5.366616,-8.53412 -5.618092,-14.30979 -0.198074,-4.54919 0.580902,-8.1624 1.636426,-7.59043 0.517743,0.28057 2.839399,3.31418 4.593196,6.00177 4.248987,6.51132 6.150608,11.94569 7.032275,20.09653 0.08364,0.77332 0.236352,1.52291 0.339333,1.66572 0.737446,1.02263 5.202286,3.61979 11.261352,6.55062 4.27797,2.06931 9.920007,4.3976 10.140543,4.18468 0.06496,-0.0627 -0.853695,-0.5822 -2.041457,-1.15442 -7.539779,-3.63232 -12.443517,-9.60572 -13.877698,-16.90484 -0.526632,-2.68025 -0.430992,-2.87053 1.141902,-2.27198 3.38344,1.28754 7.861839,4.43722 11.954536,8.4077 3.462908,3.35948 5.513752,6.17224 7.52122,10.31538 l 1.318684,2.7216 1.982899,0.63848 c 4.559321,1.46807 10.829431,2.52759 17.494321,2.9562 8.62291,0.55452 18.92222,-0.55838 26.70557,-2.88571 l 1.9356,-0.57878 1.71852,-3.31489 c 2.89706,-5.58824 5.7552,-9.10083 10.57547,-12.99704 3.78067,-3.05592 8.98939,-6.00862 9.96314,-5.64786 0.75224,0.27867 -0.15422,4.20411 -1.77729,7.69662 -2.34179,5.03903 -6.0596,8.63878 -12.25329,11.86417 -1.12247,0.58453 -1.99706,1.1051 -1.94348,1.15682 0.22652,0.2187 4.67208,-1.63836 9.84452,-4.11242 5.6126,-2.68457 10.97625,-5.81073 11.45005,-6.67359 0.14196,-0.25852 0.39661,-1.73353 0.56589,-3.2778 0.61147,-5.57821 1.88925,-9.73531 4.47206,-14.54927 1.6788,-3.12903 4.49901,-7.31105 6.11071,-9.0614 1.02217,-1.11014 1.07109,-1.13192 1.4598,-0.64992 0.60906,0.75524 0.90939,2.05977 1.08983,4.73392 0.44418,6.58275 -1.69545,12.78886 -6.0259,17.47851 l -1.40852,1.52535 2.64387,-2.06655 c 3.42783,-2.6793 6.37356,-5.31605 9.21558,-8.24895 2.5494,-2.63092 2.56035,-2.66319 1.89405,-5.57497 -1.28624,-5.62082 -1.19897,-11.34401 0.25758,-16.89152 1.10329,-4.20207 3.20051,-8.93917 3.95757,-8.93917 0.95818,0 2.6348,3.27931 3.49222,6.83052 0.34309,1.42097 0.46843,2.90722 0.44646,5.29388 -0.0356,3.87177 -0.53585,6.03637 -2.19921,9.51671 -0.90138,1.88604 -0.9618,2.10822 -0.39678,1.45906 0.92197,-1.05923 4.26092,-5.95783 5.74144,-8.42327 1.53729,-2.55998 3.36879,-6.31316 3.36879,-6.90348 0,-0.24585 -0.52091,-1.37756 -1.15759,-2.51489 -2.78024,-4.96656 -4.29917,-10.15396 -4.57014,-15.60775 -0.238,-4.79057 0.65393,-10.07084 1.70114,-10.07084 0.61253,0 3.43279,2.91882 4.51693,4.67479 2.16645,3.50898 3.26159,7.62149 3.27527,12.29938 0.006,2.02635 -0.134,3.57766 -0.41342,4.58365 -0.2323,0.83636 -0.38472,1.557 -0.33869,1.60143 0.26717,0.25795 3.23653,-9.12601 4.52282,-14.29331 0.76003,-3.05321 0.88046,-3.87314 0.63415,-4.31748 -0.16723,-0.30168 -1.21735,-1.4846 -2.3336,-2.62869 -1.11625,-1.1441 -2.59139,-2.89612 -3.27807,-3.89334 -1.50231,-2.1817 -3.60207,-6.37363 -4.51192,-9.00753 -0.96927,-2.80587 -2.01268,-8.079726 -2.01268,-10.172952 0,-1.6718 0.0443,-1.818504 0.55007,-1.818504 0.79154,0 3.20557,1.62043 5.09993,3.423338 4.23417,4.02975 7.03737,9.701488 7.49236,15.159358 0.0855,1.02508 0.24266,1.77169 0.34933,1.65914 0.51605,-0.54449 1.00662,-13.761218 0.61356,-16.529852 -0.18583,-1.308855 0.0506,-1.092603 -4.75613,-4.350106 -3.94585,-2.674091 -8.24881,-7.758459 -10.53973,-12.453737 -1.42912,-2.929005 -3.03957,-7.380797 -3.03957,-8.402313 0,-0.749456 0.0257,-0.765 0.99144,-0.598031 0.54531,0.09436 1.7356,0.503311 2.64511,0.908938 6.03689,2.692374 11.70285,8.811984 13.45861,14.536211 0.32473,1.058713 0.59648,1.637769 0.6039,1.286792 0.0305,-1.439126 -2.05333,-13.287525 -2.76073,-15.697922 -0.3691,-1.25768 -0.39956,-1.284881 -2.09328,-1.869734 -6.17132,-2.131007 -11.48894,-5.704234 -15.56106,-10.456419 -2.30631,-2.691477 -3.247,-4.074874 -4.87796,-7.173616 -1.91791,-3.643903 -1.75733,-3.778797 3.04266,-2.556143 2.30602,0.587387 5.63,2.152088 7.98833,3.760327 3.75449,2.560328 6.30225,5.467668 8.34163,9.51894 1.39978,2.780713 1.32926,2.343815 -0.3344,-2.071508 -2.23887,-5.94197 -5.90638,-13.819254 -6.74785,-14.493486 -0.205,-0.164239 -1.65723,-0.537946 -3.22721,-0.830451 -8.74535,-1.629359 -16.55776,-5.848081 -22.73127,-12.274919 -2.5254,-2.629041 -3.1491,-3.463651 -2.95443,-3.953459 0.14633,-0.36812 0.62194,-0.401573 4.06123,-0.285629 4.69364,0.158248 6.59045,0.617851 10.76955,2.609546 3.5493,1.691549 6.62633,4.016051 9.15724,6.917686 2.54439,2.917086 2.72962,2.910016 0.62144,-0.02366 -4.7623,-6.627234 -7.16974,-9.740079 -8.22281,-10.632186 -0.27407,-0.2322 -1.87773,-1.058011 -3.56367,-1.835163 -7.75151,-3.573084 -13.57174,-8.926418 -18.17734,-16.7191465 -2.9915,-5.0616882 -2.99366,-5.4166809 -0.0297,-4.9053124 7.72259,1.3324108 15.32826,6.0050564 19.5547,12.0136979 1.52708,2.171011 2.98777,5.304493 3.67456,7.882718 0.61902,2.323721 0.6549,2.382623 4.00949,6.580511 1.2528,1.567703 3.21333,4.233941 4.35676,5.92497 1.14342,1.691016 2.114,3.040764 2.15681,2.999434 0.0427,-0.04133 -0.567,-1.271794 -1.35515,-2.73434 -3.89975,-7.23678 -6.01472,-14.48266 -6.41729,-21.985665 -0.19091,-3.5580975 0.002,-4.0510895 1.30258,-3.3243135 2.20649,1.2332455 6.95909,7.2559515 8.79504,11.1454405 2.88324,6.10825 3.24481,13.064898 1.01722,19.571978 l -0.69534,2.031192 1.73799,3.50198 c 2.23809,4.509666 3.39706,7.115845 4.84918,10.904259 0.64573,1.684648 1.28945,3.292732 1.4305,3.5735 l 0.25643,0.510511 -0.11957,-0.510511 c -2.10941,-9.008077 -2.24491,-16.777724 -0.41412,-23.747487 0.69648,-2.651499 2.01518,-5.279852 2.59491,-5.17207 1.41716,0.263496 4.04,6.545836 4.98714,11.945401 0.56541,3.223394 0.56491,8.673087 -10e-4,11.497273 -0.75971,3.791079 -2.37542,7.778822 -4.47487,11.044443 l -0.62555,0.973039 0.5995,2.574936 c 0.66192,2.843032 1.65027,8.309502 2.38999,13.218902 l 0.48075,3.190628 0.17258,-3.828755 c 0.27184,-6.030534 1.37703,-11.318769 3.41967,-16.362639 1.5944,-3.937031 4.61344,-8.530019 5.32705,-8.10422 0.1352,0.08071 0.45837,0.625427 0.71817,1.210565 1.41978,3.197779 1.95927,9.470566 1.23862,14.402132 -0.932,6.377879 -3.53104,11.765245 -8.19491,16.986628 -1.82957,2.048267 -2.17657,2.614842 -2.03833,3.328226 0.0244,0.126325 0.0466,2.768161 0.049,5.870761 0.004,4.939908 -0.1002,6.643608 -0.7038,11.511868 -0.0696,0.56155 0.27976,-0.35735 0.77639,-2.042 2.41323,-8.18581 5.0931,-13.314058 9.73724,-18.633303 2.59881,-2.976582 3.78115,-4.057766 4.2482,-3.884728 0.80522,0.298314 0.95453,4.570242 0.30691,8.781123 -1.12893,7.340088 -4.54157,13.938708 -9.5464,18.458698 -1.4816,1.33808 -4.53221,3.6481 -6.23647,4.72247 -0.24626,0.15525 -0.79135,1.80541 -1.39122,4.21165 -0.78322,3.14169 -2.69831,9.21891 -4.22291,13.40065 -0.10243,0.28077 0.42976,-0.57152 1.18251,-1.89397 3.49353,-6.13762 7.34156,-10.60216 12.58133,-14.5971 3.10212,-2.36515 5.53499,-3.80135 6.43927,-3.80135 0.43471,0 0.54616,0.16175 0.54616,0.79272 0,1.79558 -1.71096,7.08806 -3.29894,10.2046 -1.69826,3.33298 -3.12176,5.20895 -6.19227,8.16071 -3.73429,3.58982 -7.37183,5.7535 -12.67876,7.54156 -1.29122,0.43506 -1.48165,0.60329 -2.16752,1.91506 -1.822,3.48465 -5.29707,8.69963 -8.37678,12.57088 -0.7654,0.96214 -1.39164,1.78087 -1.39164,1.81943 0,0.0386 1.63605,-1.49523 3.63565,-3.40844 4.03113,-3.85699 7.71552,-6.50654 12.22757,-8.79324 3.03431,-1.53777 6.59843,-2.83323 8.587,-3.12113 l 1.27052,-0.18394 -0.18915,0.73636 c -0.28605,1.11359 -2.01414,4.3401 -3.47284,6.48413 -1.74549,2.56558 -5.81927,6.46814 -8.57502,8.21465 -4.55648,2.88775 -8.16087,4.21164 -14.07642,5.17027 l -3.76967,0.61088 -4.098,3.92208 c -2.25391,2.15716 -5.52568,4.99887 -7.27064,6.31491 -3.57943,2.69959 -3.46523,2.8059 0.46547,0.43325 3.75447,-2.26628 5.30235,-3.08092 7.59831,-3.99901 2.60141,-1.04021 6.94499,-2.21557 9.91452,-2.68288 2.56269,-0.40326 7.4187,-0.50943 7.63791,-0.16701 0.42069,0.65716 -3.60479,4.90434 -6.96955,7.35337 -1.24008,0.90259 -3.68237,2.32795 -5.42732,3.16745 -5.23283,2.51757 -9.54734,3.30849 -18.04755,3.30849 h -4.71686 l -2.49811,1.43436 c -3.41309,1.95972 -8.83871,4.66908 -11.96053,5.97266 -1.42363,0.59446 -2.55059,1.11734 -2.50436,1.16197 0.0462,0.0446 2.04382,-0.54604 4.4391,-1.3126 6.27361,-2.00774 9.17586,-2.50864 14.53394,-2.50836 5.34134,2.5e-4 10.98348,0.90058 11.29481,1.8023 0.0485,0.14041 -0.59919,0.77266 -1.43924,1.40502 -8.77406,6.6047 -22.14053,8.41459 -33.51607,4.53826 l -2.27775,-0.77616 -1.63824,0.63109 c -4.03915,1.55596 -10.61977,3.12166 -16.31171,3.88097 -3.57608,0.47706 -16.06441,0.69896 -19.69682,0.34999 z m -5.9487,-26.70349 c -2.506957,-0.1867 -5.667392,-0.63812 -6.125787,-0.87497 -0.263125,-0.13595 -0.642704,-0.55966 -0.843497,-0.94156 -0.200804,-0.38191 -1.884422,-5.40375 -3.741377,-11.15965 -1.856955,-5.75591 -3.489256,-10.70603 -3.627337,-11.0003 -0.237271,-0.50562 -0.514611,-0.54365 -5.052225,-0.69283 -10.73766,-0.35302 -14.827077,-2.02962 -15.781962,-6.47031 -0.246827,-1.14787 -0.216263,-2.01696 0.165849,-4.71595 l 0.468438,-3.30876 -1.106485,-2.60384 c -1.581966,-3.72278 -1.694978,-4.18718 -1.356287,-5.57355 0.284384,-1.16409 0.271756,-1.20485 -0.790931,-2.55252 -1.231311,-1.56151 -1.721535,-2.97177 -1.474658,-4.24226 0.09374,-0.48238 0.593996,-1.80712 1.111693,-2.9439 0.682058,-1.49767 0.870552,-2.17633 0.684478,-2.46437 -0.141233,-0.21865 -1.137448,-0.59581 -2.213809,-0.83816 -5.06738,-1.14095 -7.443273,-2.35812 -8.512522,-4.3609 -1.693559,-3.17216 -0.286388,-6.9828 5.09015,-13.7842 4.456442,-5.637452 6.278293,-8.264661 6.902947,-9.954417 0.523075,-1.414978 0.605375,-2.310257 0.790443,-8.598815 0.113617,-3.860662 0.34144,-7.765994 0.506273,-8.67852 1.634525,-9.048744 5.672939,-16.52742 12.205913,-22.603918 3.70937,-3.4502 6.869966,-5.552355 11.732271,-7.803295 13.068252,-6.04979 31.108982,-6.685837 45.338692,-1.598467 13.2222,4.727154 23.671,13.735986 29.4717,25.410131 7.63427,15.364305 6.62288,34.338897 -2.60915,48.949581 -0.8366,1.32402 -2.79745,4.13815 -4.35744,6.25365 -1.55999,2.11547 -3.20184,4.42064 -3.64856,5.12257 -3.68876,5.79619 -5.09568,10.35145 -4.75477,15.39478 0.26828,3.9688 1.403,7.15502 3.83514,10.76866 0.60441,0.89802 1.09849,1.7535 1.09794,1.90107 -0.006,1.71529 -8.74145,9.29639 -16.1266,13.99606 -4.04255,2.57255 -10.86662,5.90622 -14.40909,7.0391 -3.52759,1.12812 -7.47624,2.04676 -10.64163,2.47574 -2.72928,0.36989 -9.82203,0.63331 -12.22781,0.45412 z m 13.27575,-4.91169 c 7.74904,-1.50308 16.0433,-4.97594 23.07743,-9.66263 2.80231,-1.86713 9.21924,-6.8648 10.68334,-8.32046 l 1.16544,-1.15871 -1.4985,-2.88463 c -2.04076,-3.92854 -2.81527,-6.93555 -2.81527,-10.93042 0,-6.9172 2.21632,-12.16333 8.89573,-21.05662 4.92543,-6.55793 7.40771,-10.98118 9.323,-16.612958 1.87986,-5.527577 2.27117,-8.066543 2.25819,-14.651369 -0.0106,-5.269356 -0.0713,-6.016901 -0.73932,-9.061409 -1.01695,-4.635383 -2.2578,-8.094355 -4.39523,-12.252032 -6.25842,-12.173766 -18.86214,-21.204107 -33.81169,-24.225453 -8.28457,-1.674342 -17.23484,-1.512806 -25.55107,0.461149 -13.948534,3.310836 -24.659854,12.215265 -28.679924,23.841908 -1.549146,4.480358 -1.902546,6.943353 -2.113073,14.726932 -0.262454,9.703472 -0.483468,10.30691 -6.654992,18.170288 -5.707062,7.271594 -6.669266,8.867694 -6.523291,10.820964 0.111759,1.49545 0.953471,2.01537 4.725202,2.91876 6.118076,1.46537 7.620288,3.90234 5.404575,8.76764 -0.508946,1.11755 -0.925354,2.25626 -0.925354,2.53045 0,0.70363 0.8627,1.67776 2.220066,2.50681 1.398404,0.85413 2.123882,1.92749 1.89579,2.80489 -0.08992,0.34585 -0.565241,1.05816 -1.05629,1.58292 l -0.892814,0.95408 1.230008,2.40424 c 1.195148,2.33609 1.229699,2.46984 1.219074,4.7188 -0.006,1.27302 -0.112357,3.31192 -0.236312,4.53092 l -0.225379,2.21638 0.792099,0.76472 c 1.463261,1.41271 5.410367,2.07627 12.364156,2.0786 4.854045,10e-4 6.054139,0.22439 6.588378,1.22291 0.203058,0.37953 1.986401,5.62201 3.963004,11.64996 1.976593,6.02796 3.697975,11.06048 3.825284,11.18338 0.50292,0.48554 3.055783,0.66871 8.235343,0.59086 4.23655,-0.0637 6.03835,-0.20141 8.2524,-0.63087 z"
       id="path1" /></g></svg>
