<?xml version="1.0" encoding="UTF-8" standalone="no"?>
<!-- Created with Inkscape (http://www.inkscape.org/) -->

<svg
   width="210mm"
   height="297mm"
   viewBox="0 0 210 297"
   version="1.1"
   id="svg1"
   xml:space="preserve"
   inkscape:version="1.4 (86a8ad7, 2024-10-11)"
   sodipodi:docname="text icon.svg"
   xmlns:inkscape="http://www.inkscape.org/namespaces/inkscape"
   xmlns:sodipodi="http://sodipodi.sourceforge.net/DTD/sodipodi-0.dtd"
   xmlns="http://www.w3.org/2000/svg"
   xmlns:svg="http://www.w3.org/2000/svg"><sodipodi:namedview
     id="namedview1"
     pagecolor="#ffffff"
     bordercolor="#000000"
     borderopacity="0.25"
     inkscape:showpageshadow="2"
     inkscape:pageopacity="0.0"
     inkscape:pagecheckerboard="0"
     inkscape:deskcolor="#d1d1d1"
     inkscape:document-units="mm"
     showborder="false"
     inkscape:zoom="0.36756309"
     inkscape:cx="295.18742"
     inkscape:cy="499.23402"
     inkscape:window-width="1592"
     inkscape:window-height="1211"
     inkscape:window-x="4314"
     inkscape:window-y="60"
     inkscape:window-maximized="0"
     inkscape:current-layer="layer1" /><defs
     id="defs1" /><g
     inkscape:label="Layer 1"
     inkscape:groupmode="layer"
     id="layer1"><path
       style="fill:#000000;stroke-width:1.1236"
       d="M 58.925522,260.94476 C 39.582007,259.0345 23.114076,245.19367 28.36768,235.26175 c 3.305353,-6.24877 11.401473,-3.81631 12.060435,3.62352 0.580931,6.55884 5.989961,10.44914 15.181432,10.91884 l 3.192372,0.16314 2.559189,-0.49932 c 13.96291,-2.72422 17.966966,-10.63901 19.055519,-37.66685 0.40551,-10.06847 0.394139,-86.74429 -0.0132,-89.16557 -1.018111,-6.05146 -4.90414,-8.20273 -15.75618,-8.72248 l -5.024358,-0.24061 -0.82803,-0.52327 c -3.771911,-2.38361 -1.81943,-7.05276 3.309224,-7.91365 1.498405,-0.25152 3.882251,-0.66352 5.297438,-0.91556 3.783662,-0.67384 21.660721,-4.420601 33.298509,-6.978867 16.94574,-3.725069 17.95845,-3.929064 19.52504,-3.932904 2.0296,-0.0055 3.34184,0.776566 3.76365,2.241564 0.74217,2.577676 0.24027,91.052277 -0.57439,101.250617 -0.41792,5.23156 -1.47768,15.51309 -1.71136,16.60306 -0.28383,1.32384 0.0662,0.98464 5.72105,-5.54311 l 5.34092,-6.1654 0.77262,-5.57457 c 1.56479,-11.29018 3.11461,-16.77682 6.8178,-24.13617 7.56716,-15.03828 22.93198,-29.16526 36.8123,-33.8466 3.0707,-1.03565 3.09873,-1.00889 3.95421,3.77524 l 0.52208,2.91955 0.0153,7.73681 0.0153,7.73681 -0.69416,3.50346 c -2.8425,14.34635 -11.23341,25.98541 -24.92651,34.57563 -1.93816,1.21589 -3.77715,2.38123 -4.08663,2.58963 l -0.56268,0.37893 0.57786,-0.16859 c 2.93936,-0.85762 24.11893,-1.6748 24.86771,-0.95949 0.60563,0.57855 -4.70945,6.30945 -8.73576,9.4192 -6.76049,5.22152 -12.32038,7.00119 -23.21816,7.43195 l -6.81105,0.26923 -2.46151,0.69469 c -5.33962,1.50695 -8.89128,4.38627 -17.01539,13.79437 -8.54054,9.89031 -11.57347,12.85792 -17.63584,17.25596 -11.931028,8.65555 -27.982907,13.1427 -42.046899,11.75382 z m 23.199629,-11.66257 c 22.937299,-7.61432 31.778959,-22.24119 34.046269,-56.32323 0.35225,-5.29506 0.77141,-89.11777 0.45178,-90.34603 l -0.1936,-0.74396 h -0.73217 c -0.40268,0 -4.99754,0.97207 -10.2108,2.16017 -5.21328,1.18809 -12.679878,2.84816 -16.592448,3.68903 -3.912579,0.84088 -7.14515,1.55225 -7.183493,1.58084 -0.03832,0.0286 0.754207,0.8691 1.761225,1.86781 1.935733,1.9198 3.202289,4.14587 4.095156,7.19761 l 0.512532,1.75173 0.12391,7.88279 c 0.20167,12.83045 -0.48976,91.90322 -0.838651,95.90725 -0.987067,11.32829 -3.349217,18.80402 -7.701128,24.37251 -2.037949,2.60766 -2.187412,2.54672 2.461418,1.00348 z m 69.225779,-58.28942 c 11.85163,-8.04492 18.58895,-19.75321 19.18432,-33.3389 l 0.18457,-4.21186 -1.18165,0.68403 c -10.62282,6.14946 -19.9763,18.48819 -24.59206,32.44085 -1.04693,3.16467 -2.22564,8.40295 -1.97785,8.78964 0.2219,0.34627 5.46435,-2.3828 8.38267,-4.36376 z M 97.419772,83.45934 C 87.820152,81.807615 80.589868,75.416572 78.257563,66.521355 l -0.632434,-2.412059 0.131894,-4.695542 0.131896,-4.695544 1.129903,-3.211499 C 82.745424,40.914638 91.489402,33.271375 102.08092,31.34775 l 2.70573,-0.491412 3.78392,0.152883 c 12.50528,0.505293 21.31882,8.213516 22.76908,19.913576 l 0.3257,2.627596 -0.35416,2.950423 c -2.0019,16.67694 -18.30012,29.641182 -33.891418,26.958524 z m 6.610098,-7.593364 c 11.11562,-1.731616 19.4358,-10.945465 19.49203,-21.585693 l 0.0163,-3.065534 -0.66226,-2.055809 c -1.63896,-5.087743 -5.7756,-8.833435 -11.27814,-10.212254 l -1.96764,-0.493055 -3.32986,0.140513 C 95.755262,39.039111 87.095922,47.161691 85.565699,58.043475 l -0.344441,2.4494 0.360906,2.063665 c 1.308859,7.483957 6.161208,12.302304 13.423368,13.329298 2.267378,0.320641 2.853558,0.318323 5.024418,-0.01986 z"
       id="path1" /></g></svg>
