<?xml version="1.0" standalone="no"?>
<!DOCTYPE svg PUBLIC "-//W3C//DTD SVG 20010904//EN"
 "http://www.w3.org/TR/2001/REC-SVG-20010904/DTD/svg10.dtd">
<svg version="1.0" xmlns="http://www.w3.org/2000/svg"
 width="1024.000000pt" height="1024.000000pt" viewBox="0 0 1024.000000 1024.000000"
 preserveAspectRatio="xMidYMid meet">
<metadata>
Created by potrace 1.16, written by Peter Selinger 2001-2019
</metadata>
<g transform="translate(0.000000,1024.000000) scale(0.100000,-0.100000)"
fill="#000000" stroke="none">
<path d="M5171 9515 c-202 -44 -368 -134 -509 -278 -191 -193 -298 -425 -309
-673 -12 -252 56 -445 211 -600 86 -86 184 -146 308 -187 89 -30 100 -31 253
-31 184 1 257 16 399 82 115 54 196 111 294 206 179 173 288 400 312 646 48
492 -287 853 -787 849 -59 0 -137 -7 -172 -14z m403 -24 c219 -58 380 -186
471 -376 63 -130 79 -216 72 -384 -6 -157 -31 -261 -98 -400 -218 -460 -753
-693 -1194 -522 -108 42 -191 98 -272 185 -226 242 -254 647 -70 984 156 285
404 470 706 527 104 20 282 13 385 -14z"/>
<path d="M5196 9240 c-244 -66 -432 -249 -518 -504 -27 -80 -30 -105 -30 -201
0 -175 52 -308 155 -400 105 -95 221 -132 380 -122 281 18 540 233 626 522 98
332 -24 612 -306 702 -92 29 -207 30 -307 3z m318 -19 c130 -46 224 -134 278
-259 32 -74 33 -82 33 -202 -1 -99 -6 -142 -23 -205 -73 -254 -272 -452 -518
-515 -296 -76 -558 81 -614 368 -20 98 -8 251 25 342 37 102 94 197 161 270
114 122 215 178 409 224 45 11 192 -3 249 -23z"/>
<path d="M5680 7393 c-46 -8 -447 -91 -690 -143 -241 -51 -401 -84 -1010 -210
-135 -27 -255 -54 -268 -60 -60 -26 -82 -137 -39 -201 37 -56 76 -69 204 -69
183 0 293 -28 390 -101 88 -66 130 -178 138 -374 3 -66 10 -633 16 -1260 21
-2165 -9 -2478 -261 -2736 -36 -36 -90 -82 -120 -102 -112 -74 -309 -126 -428
-112 -169 20 -289 66 -376 146 -67 61 -104 134 -121 244 -8 48 -23 101 -33
119 -53 90 -226 104 -299 25 -41 -45 -56 -97 -48 -172 21 -221 154 -414 387
-563 125 -80 230 -122 408 -163 427 -98 1006 7 1405 255 204 127 416 324 600
558 285 362 497 572 663 658 l77 40 135 -8 c253 -14 417 0 582 52 167 52 337
153 466 278 63 60 162 186 193 245 23 45 20 75 -8 67 -35 -10 -330 -57 -453
-71 -69 -8 -188 -18 -265 -21 l-140 -5 51 23 c94 42 234 131 338 214 265 212
458 527 552 899 43 175 62 307 70 500 9 241 -24 511 -67 538 -12 7 -44 -1
-120 -32 -597 -242 -1114 -784 -1311 -1375 -67 -198 -94 -353 -116 -662 -7
-93 -12 -117 -31 -140 -12 -16 -43 -56 -68 -89 -65 -86 -246 -280 -251 -267
-2 6 4 60 12 119 24 169 46 429 55 663 11 283 12 2116 2 2717 -8 440 -9 474
-28 510 -31 61 -96 83 -193 66z m145 -27 c57 -37 55 -17 67 -784 11 -793 5
-2392 -11 -2637 -12 -180 -35 -411 -56 -560 -8 -55 -15 -104 -15 -108 0 -13
198 193 254 263 121 153 123 157 130 266 20 292 46 449 106 639 147 458 488
895 924 1186 125 83 310 179 429 223 l68 26 14 -35 c46 -109 62 -493 31 -723
-35 -253 -89 -438 -186 -637 -97 -200 -217 -359 -369 -492 -139 -122 -342
-245 -458 -279 -29 -8 -53 -17 -53 -19 0 -1 46 -1 103 1 263 9 393 22 690 70
87 14 161 23 164 20 3 -3 -7 -27 -22 -53 -130 -222 -386 -424 -643 -503 -163
-51 -193 -54 -477 -55 l-270 0 -50 -26 c-27 -15 -79 -48 -115 -74 -91 -67
-338 -320 -440 -450 -350 -449 -572 -645 -913 -805 -120 -56 -249 -99 -407
-133 -197 -44 -267 -50 -484 -44 -213 6 -297 19 -461 73 -333 110 -596 380
-623 642 -12 113 5 167 72 216 40 30 162 30 202 0 48 -36 63 -66 74 -149 12
-87 50 -180 95 -233 56 -67 186 -138 290 -160 212 -45 399 -11 570 103 151
100 252 248 300 439 80 319 95 828 76 2601 -13 1235 -13 1219 -70 1333 -75
149 -199 205 -477 215 -91 4 -141 10 -162 21 -34 18 -62 70 -62 118 0 40 32
95 62 108 13 6 122 30 243 55 352 71 1132 233 1590 331 168 36 227 38 270 10z"/>
<path d="M5530 7090 c-253 -58 -1025 -220 -1052 -220 -21 0 -20 -2 8 -32 123
-132 185 -281 198 -474 3 -44 8 -713 12 -1485 8 -1793 -1 -2078 -76 -2375 -45
-178 -115 -321 -217 -441 l-55 -65 33 7 c90 18 219 60 283 92 291 146 576 438
721 738 132 271 200 589 237 1100 24 328 14 3178 -11 3174 -3 -1 -40 -9 -81
-19z m86 -477 c14 -747 11 -2435 -4 -2638 -42 -568 -120 -924 -255 -1176 -147
-273 -418 -545 -677 -678 -89 -46 -275 -109 -287 -98 -3 3 5 16 17 29 39 40
126 180 158 253 62 144 93 286 123 565 16 143 23 2199 10 2980 -10 674 -9 668
-81 817 -22 45 -62 105 -89 135 l-49 53 232 47 c230 47 570 120 761 164 55 12
107 23 116 23 15 1 17 -45 25 -476z"/>
<path d="M7336 5298 c-107 -74 -261 -219 -365 -343 -156 -187 -302 -447 -376
-668 -34 -103 -98 -367 -91 -375 9 -8 199 96 286 156 111 78 275 237 352 342
144 198 228 418 272 721 9 59 16 128 15 155 -1 32 -6 9 -15 -66 -41 -349 -129
-597 -286 -805 -143 -191 -320 -341 -516 -440 -48 -24 -89 -42 -91 -40 -5 6
27 147 60 265 128 452 451 890 846 1147 10 6 13 12 8 12 -6 1 -51 -27 -99 -61z"/>
</g>
</svg>
